<?xml version="1.0" encoding="UTF-8" standalone="no"?>
<!-- Generator: Adobe Illustrator 19.0.0, SVG Export Plug-In . SVG Version: 6.00 Build 0)  -->

<svg
   xmlns:dc="http://purl.org/dc/elements/1.1/"
   xmlns:cc="http://creativecommons.org/ns#"
   xmlns:rdf="http://www.w3.org/1999/02/22-rdf-syntax-ns#"
   xmlns:svg="http://www.w3.org/2000/svg"
   xmlns="http://www.w3.org/2000/svg"
   xmlns:sodipodi="http://sodipodi.sourceforge.net/DTD/sodipodi-0.dtd"
   xmlns:inkscape="http://www.inkscape.org/namespaces/inkscape"
   version="1.1"
   id="Layer_1"
   x="0px"
   y="0px"
   viewBox="0 0 512 512"
   xml:space="preserve"
   sodipodi:docname="pokemmo-installer.svg"
   width="512"
   height="512"
   inkscape:version="0.92.1 r15371"
   inkscape:export-filename="pokemmo-installer.png"
   inkscape:export-xdpi="96"
   inkscape:export-ydpi="96"><title
     id="title3996">PokeMMO Installer</title><metadata
     id="metadata155"><rdf:RDF><cc:Work
         rdf:about=""><dc:format>image/svg+xml</dc:format><dc:type
           rdf:resource="http://purl.org/dc/dcmitype/StillImage" /><dc:title>PokeMMO Installer</dc:title><cc:license
           rdf:resource="" /><dc:date /><dc:creator><cc:Agent><dc:title>Carlos Donizete Froes [a.k.a coringao]</dc:title></cc:Agent></dc:creator><dc:rights><cc:Agent><dc:title /></cc:Agent></dc:rights><dc:description>Installer and Launcher for the PokeMMO emulator</dc:description><dc:publisher><cc:Agent><dc:title /></cc:Agent></dc:publisher></cc:Work></rdf:RDF></metadata><defs
     id="defs153" /><sodipodi:namedview
     pagecolor="#ffffff"
     bordercolor="#666666"
     borderopacity="1"
     objecttolerance="10"
     gridtolerance="10"
     guidetolerance="10"
     inkscape:pageopacity="0"
     inkscape:pageshadow="2"
     inkscape:window-width="1366"
     inkscape:window-height="704"
     id="namedview151"
     showgrid="false"
     units="in"
     width="512in"
     inkscape:zoom="0.97851562"
     inkscape:cx="258.09644"
     inkscape:cy="247.82436"
     inkscape:window-x="0"
     inkscape:window-y="27"
     inkscape:window-maximized="1"
     inkscape:current-layer="Layer_1" /><g
     id="g4"
     transform="matrix(-3.751519,0,0,-3.601544,494.57623,487)"><path
       inkscape:connector-curvature="0"
       id="path2"
       d="M 9.58,47.725 50.494,6.817 c 7.097,-7.096 19.661,-7.084 26.748,0.004 l 40.902,40.906 c 7.382,7.389 7.382,19.363 -0.002,26.748 -7.391,7.377 -19.358,7.383 -26.745,-0.004 L 82.78,65.85 v 41.461 c 0,10.445 -8.469,18.912 -18.913,18.912 -10.446,0 -18.909,-8.467 -18.909,-18.912 V 65.842 l -8.634,8.633 C 32.628,78.163 27.79,80.01 22.951,80.01 18.116,80.01 13.271,78.162 9.579,74.471 2.196,67.083 2.196,55.114 9.58,47.725 Z"
       style="fill:#ffffff" /></g><g
     id="g8"
     transform="matrix(-3.751519,0,0,-3.601544,494.57623,487)"
     style="fill:#d7f4ee"><path
       inkscape:connector-curvature="0"
       id="path6"
       d="M 63.623,1.512 C 68.62,1.453 73.638,3.217 77.241,6.821 l 40.902,40.906 c 7.382,7.389 7.382,19.363 -0.002,26.748 -7.391,7.377 -19.358,7.383 -26.745,-0.004 L 82.779,65.85 v 41.461 c 0,10.445 -8.469,18.912 -18.913,18.912 -0.082,0 -0.161,-0.012 -0.243,-0.012 z"
       style="fill:#d7f4ee" /></g><g
     id="g12"
     transform="matrix(-3.751519,0,0,-3.601544,494.57623,487)"
     style="fill:#aaffee"><path
       inkscape:connector-curvature="0"
       id="path10"
       d="m 36.323,74.475 c -3.696,3.688 -8.534,5.535 -13.373,5.535 -3.254,0 -6.511,-0.857 -9.419,-2.535 L 50.494,40.516 c 7.097,-7.092 19.661,-7.084 26.748,0.006 l 36.949,36.953 c -7.23,4.162 -16.617,3.176 -22.794,-3.004 L 82.78,65.85 v 33.699 7.762 c 0,10.445 -8.469,18.912 -18.913,18.912 -10.446,0 -18.909,-8.467 -18.909,-18.912 v -7.77 -33.699 z"
       style="fill:#aaffee" /></g><g
     id="g16"
     transform="matrix(-3.751519,0,0,-3.601544,494.57623,487)"
     style="fill:#d7f4ee"><path
       inkscape:connector-curvature="0"
       id="path14"
       d="m 63.861,35.202 v 91.021 C 53.417,126.221 44.957,117.754 44.957,107.311 v -7.77 -33.699 l -8.634,8.633 c -3.696,3.688 -8.534,5.535 -13.373,5.535 -3.254,0 -6.511,-0.857 -9.419,-2.535 L 50.494,40.516 c 3.545,-3.543 8.457,-5.314 13.367,-5.314 z"
       style="fill:#d7f4ee" /></g><g
     id="g20"
     transform="matrix(-3.751519,0,0,-3.601544,494.57623,487)"><path
       inkscape:connector-curvature="0"
       id="path18"
       d="m 63.866,127.723 c -11.253,0 -20.409,-9.157 -20.409,-20.412 V 69.463 l -6.074,6.072 C 33.521,79.389 28.396,81.51 22.949,81.51 17.498,81.51 12.372,79.387 8.516,75.531 0.564,67.571 0.565,54.622 8.518,46.664 v 0 L 49.433,5.756 C 53.092,2.098 58.351,0 63.863,0 c 0.003,0 0.006,0 0.009,0 5.513,0.002 10.772,2.102 14.43,5.76 l 40.902,40.906 c 7.955,7.962 7.954,20.913 -0.002,28.869 -7.965,7.951 -20.914,7.947 -28.866,-0.004 l -6.057,-6.06 v 37.839 c 0,11.256 -9.157,20.413 -20.413,20.413 z M 44.957,64.342 c 0.193,0 0.388,0.037 0.574,0.114 0.561,0.232 0.926,0.779 0.926,1.386 v 41.469 c 0,9.601 7.81,17.412 17.409,17.412 9.602,0 17.413,-7.812 17.413,-17.412 V 65.85 c 0,-0.606 0.366,-1.153 0.926,-1.386 0.561,-0.234 1.206,-0.103 1.635,0.325 l 8.617,8.621 c 6.783,6.782 17.83,6.785 24.625,0.003 6.786,-6.786 6.787,-17.834 0.001,-24.626 L 76.181,7.881 C 73.081,4.781 68.594,3.002 63.87,3 63.868,3 63.865,3 63.863,3 59.14,3 54.655,4.777 51.554,7.877 L 10.641,48.786 v 0 c -6.785,6.789 -6.786,17.836 -0.003,24.625 3.289,3.288 7.661,5.1 12.311,5.1 4.646,0 9.02,-1.811 12.314,-5.097 l 8.633,-8.632 c 0.287,-0.287 0.671,-0.44 1.061,-0.44 z"
       style="fill:#33363a" /></g><g
     id="g32"
     transform="matrix(-3.751519,0,0,-3.601544,494.57623,487)"
     inkscape:transform-center-x="-4.0615852"
     inkscape:transform-center-y="-25.878978"><g
       id="g26"><path
         style="fill:#33363a"
         d="m 82.886,67.35 c -0.384,0 -0.768,-0.146 -1.061,-0.439 L 72.73,57.822 c -0.586,-0.586 -0.586,-1.536 0,-2.122 0.586,-0.586 1.536,-0.585 2.122,0 l 9.095,9.09 c 0.586,0.585 0.586,1.535 0,2.121 -0.293,0.293 -0.678,0.439 -1.061,0.439 z"
         id="path24"
         inkscape:connector-curvature="0" /></g><g
       id="g30"><path
         style="fill:#33363a"
         d="m 44.835,67.35 c -0.384,0 -0.768,-0.146 -1.061,-0.439 -0.585,-0.586 -0.585,-1.536 0,-2.121 l 9.093,-9.09 c 0.586,-0.585 1.536,-0.585 2.122,0 0.585,0.586 0.585,1.536 0,2.122 l -9.093,9.089 c -0.293,0.293 -0.677,0.439 -1.061,0.439 z"
         id="path28"
         inkscape:connector-curvature="0" /></g></g><g
     id="g38"
     transform="matrix(4.7557403,0,0,4.5656195,-48.008358,126.28612)"><path
       style="fill:#ff8f8f"
       d="m 81.285,51.059 c 0,9.625 -7.802,17.426 -17.425,17.426 -9.622,0 -17.424,-7.801 -17.424,-17.426 0,-9.621 7.801,-17.422 17.424,-17.422 9.623,0 17.425,7.801 17.425,17.422 z"
       id="path36"
       inkscape:connector-curvature="0" /></g><g
     id="g42"
     transform="matrix(4.7557403,0,0,4.7836349,-44.371172,100.605)"
     style="fill:#4d4d4d"><path
       style="fill:#4d4d4d"
       d="m 81.285,51.059 c 0,7.373 -7.802,13.348 -17.425,13.348 -9.622,0 -17.424,-5.975 -17.424,-13.348 0,-7.367 7.801,-13.346 17.424,-13.346 9.623,0 17.425,5.979 17.425,13.346 z"
       id="path40"
       inkscape:connector-curvature="0" /></g><g
     id="g46"
     transform="matrix(4.7557403,0,0,4.5656195,-48.008358,126.28612)"><path
       style="fill:#ffffff"
       d="m 46.436,51.059 c 0,9.625 7.801,17.426 17.424,17.426 9.623,0 17.425,-7.801 17.425,-17.426 z"
       id="path44"
       inkscape:connector-curvature="0" /></g><g
     id="g50"
     transform="matrix(4.7557403,0,0,5.5248158,-41.946306,78.834987)"
     style="fill:#b3b3b3"><path
       style="fill:#b3b3b3"
       d="m 63.86,64.407 c 9.623,0 17.425,-5.975 17.425,-13.348 H 46.436 c 0,7.373 7.802,13.348 17.424,13.348 z"
       id="path48"
       inkscape:connector-curvature="0" /></g><path
     style="fill:#33363a;stroke-width:4.65971088"
     d="m 255.69319,273.01138 c -49.62613,0 -89.9976,38.75298 -89.9976,86.39065 0,47.64683 40.37147,86.40892 89.9976,86.40892 49.62616,0 90.0024,-38.76209 90.0024,-86.40892 0,-47.63767 -40.37624,-86.39065 -90.0024,-86.39065 z m 0,13.69687 c 39.34901,0 71.76413,28.96428 75.37374,65.84536 H 180.32422 c 3.61437,-36.88108 36.02,-65.84536 75.36897,-65.84536 z m 0,145.40584 c -39.34897,0 -71.75935,-28.97342 -75.36897,-65.86361 h 150.74271 c -3.60961,36.89019 -36.01998,65.86361 -75.37374,65.86361 z"
     id="path52"
     inkscape:connector-curvature="0" /><g
     id="g56"
     transform="matrix(4.7557403,0,0,4.5656195,-48.008358,126.28612)"><circle
       id="circle54"
       r="5.7610002"
       cy="53.056"
       cx="63.860001"
       style="fill:#a7bbc1" /></g><g
     id="g60"
     transform="matrix(4.7557403,0,0,4.5656195,-48.008358,126.28612)"><circle
       id="circle58"
       r="5.7610002"
       cy="51.098"
       cx="63.860001"
       style="fill:#ffffff" /></g><g
     id="g64"
     transform="matrix(4.7557403,0,0,4.5656195,-48.008358,126.28612)"
     style="fill:#cccccc"><path
       inkscape:connector-curvature="0"
       id="path62"
       d="m 59.787,55.172 c -2.25,-2.25 -2.25,-5.9 0,-8.148 2.251,-2.25 5.898,-2.25 8.147,0"
       style="fill:#cccccc" /></g><path
     style="fill:#33363a;stroke-width:4.65971041"
     d="m 255.69797,392.73568 c -9.22137,0 -17.89584,-3.44705 -24.42073,-9.70651 -6.52486,-6.26403 -10.1107,-14.59172 -10.1107,-23.44902 0,-8.85732 3.59059,-17.185 10.1107,-23.44445 6.52489,-6.25948 15.19936,-9.70653 24.42073,-9.70653 9.22139,0 17.8911,3.44705 24.41122,9.70653 v 0 c 6.52486,6.25945 10.1202,14.58258 10.1202,23.44445 0,8.8573 -3.59534,17.18499 -10.11545,23.44443 -6.52012,6.25948 -15.18983,9.7111 -24.41597,9.7111 z m 0,-52.61422 c -5.41204,0 -10.50067,2.02258 -14.33382,5.70246 -3.82836,3.67077 -5.93514,8.55599 -5.93514,13.75623 0,5.20023 2.10678,10.08545 5.93514,13.76076 3.8284,3.67534 8.91703,5.69791 14.33382,5.69791 5.41678,0 10.50068,-2.02257 14.32429,-5.69791 3.83313,-3.67531 5.93992,-8.56053 5.93992,-13.76076 0,-5.20024 -2.10679,-10.08088 -5.93515,-13.75623 0,0 0,0 -0.005,0 -3.82361,-3.67531 -8.91226,-5.70246 -14.32429,-5.70246 z"
     id="path66"
     inkscape:connector-curvature="0" /><g
     id="g120"
     transform="translate(0,384.277)" /><g
     id="g122"
     transform="translate(0,384.277)" /><g
     id="g124"
     transform="translate(0,384.277)" /><g
     id="g126"
     transform="translate(0,384.277)" /><g
     id="g128"
     transform="translate(0,384.277)" /><g
     id="g130"
     transform="translate(0,384.277)" /><g
     id="g132"
     transform="translate(0,384.277)" /><g
     id="g134"
     transform="translate(0,384.277)" /><g
     id="g136"
     transform="translate(0,384.277)" /><g
     id="g138"
     transform="translate(0,384.277)" /><g
     id="g140"
     transform="translate(0,384.277)" /><g
     id="g142"
     transform="translate(0,384.277)" /><g
     id="g144"
     transform="translate(0,384.277)" /><g
     id="g146"
     transform="translate(0,384.277)" /><g
     id="g148"
     transform="translate(0,384.277)" /></svg>